<svg width="59" height="118" viewBox="0 0 59 118" fill="none" xmlns="http://www.w3.org/2000/svg">
<path d="M21 0.5C19.4 2.5 16.3333 4.33333 15 5C6 8 2.5 13 2.5 15.5C2.5 18 1.5 21.5 5.5 20C14 15.5 18.5 16.5 24 16C29.5 15.5 27.5 8.5 27 5C26.5 1.5 22 0 21 0.5Z" fill="#FF4D4D"/>
<path d="M0.500001 33.5C0.100001 37.5 1.33333 39.5 2 40C8 37.5 19.5 41.5 22 42C26 42.5 27.5 36.5 27.5 31.5C27.5 26.5 28 23 26 20.5C23 16 12 19.5 6.5 21.5C1 23.5 1 28.5 0.500001 33.5Z" fill="#FF4D4D"/>
<path d="M27.5 48C18.3 40 6.33333 40.3333 1.5 41.5C1.5 45 0.500001 59.5 3.5 60.5C6.5 61.5 15.5 65 20.5 67.5C24.5 69.5 26.8333 64 27.5 61V48Z" fill="#FF4D4D"/>
<path d="M28.5 116.5V79.5C23 67.5 7 63 3.5 64C-1 72.5 17.5 108.5 20.5 112.5C24.1 118.9 27.3333 117.833 28.5 116.5Z" fill="#FF4D4D"/>
<path d="M37.5 0.09375C39.1 2.09375 42.1667 3.92708 43.5 4.59375C52.5 7.59375 56 12.5938 56 15.0938C56 17.5938 57 21.0938 53 19.5938C44.5 15.0938 40 16.0938 34.5 15.5938C29 15.0938 31 8.09375 31.5 4.59375C32 1.09375 36.5 -0.40625 37.5 0.09375Z" fill="#FF4D4D"/>
<path d="M58 33.0938C58.4 37.0938 57.1667 39.0938 56.5 39.5938C50.5 37.0938 39 41.0938 36.5 41.5938C32.5 42.0938 31 36.0938 31 31.0938C31 26.0938 30.5 22.5938 32.5 20.0938C35.5 15.5938 46.5 19.0938 52 21.0938C57.5 23.0938 57.5 28.0938 58 33.0938Z" fill="#FF4D4D"/>
<path d="M31 47.5938C40.2 39.5938 52.1667 39.9271 57 41.0938C57 44.5938 58 59.0938 55 60.0938C52 61.0938 43 64.5938 38 67.0938C34 69.0938 31.6667 63.5938 31 60.5938V47.5938Z" fill="#FF4D4D"/>
<path d="M30 116.094V79.0938C35.5 67.0938 51.5 62.5938 55 63.5938C59.5 72.0938 41 108.094 38 112.094C34.4 118.494 31.1667 117.427 30 116.094Z" fill="#FF4D4D"/>
</svg>
