<svg width="196" height="552" viewBox="0 0 196 552" fill="none" xmlns="http://www.w3.org/2000/svg">
<!-- calf -->
<path id="calf_left_outer" d="M79.6955 440C82.8955 422 78.3622 405.5 75.6955 399.5C75.6955 404.5 75.2955 415.3 73.6955 418.5C67.1955 442.5 71.1955 499 72.1955 501C72.9955 502.6 76.1955 503.333 77.6955 503.5C81.1955 494.5 80.6955 490.5 80.1955 489C79.6955 487.5 76.6955 481.5 76.1955 479C75.6955 476.5 75.6955 462.5 79.6955 440Z" fill="#D9D9D9"/>
<path id="calf_left_inner" d="M53.1956 400.5L49.6956 394.5C42.1956 416 45.1956 436 46.6956 445C48.1956 454 59.6956 478 61.6956 489C63.2956 497.8 61.6956 503.667 60.6956 505.5L65.6956 502.5C64.6956 496.667 62.6956 484.4 62.6956 482C62.6956 479 61.6956 456.5 59.6956 445C58.0956 435.8 57.3622 419.5 57.1956 412.5L53.6956 406.5L53.1956 400.5Z" fill="#D9D9D9"/>
<path id="calf_right_outer" d="M116.796 440.5C113.596 422.5 118.13 406 120.796 400C120.796 405 121.196 415.8 122.796 419C129.296 443 125.296 499.5 124.296 501.5C123.496 503.1 120.296 503.833 118.796 504C115.296 495 115.796 491 116.296 489.5C116.796 488 119.796 482 120.296 479.5C120.796 477 120.796 463 116.796 440.5Z" fill="#D9D9D9"/>
<path id="calf_right_inner" d="M143.296 401L146.796 395C154.296 416.5 151.296 436.5 149.796 445.5C148.296 454.5 136.796 478.5 134.796 489.5C133.196 498.3 134.796 504.167 135.796 506L130.796 503C131.796 497.167 133.796 484.9 133.796 482.5C133.796 479.5 134.796 457 136.796 445.5C138.396 436.3 139.13 420 139.296 413L142.796 407L143.296 401Z" fill="#D9D9D9"/>
<!-- leg -->
<path d="M41.1956 302C40.3956 272.4 52.8622 250.333 59.1956 243C60.6956 255.5 49.6955 271 45.6955 281C42.4956 289 41.3622 298.333 41.1956 302Z" fill="#D9D9D9"/>
<g id="quads">
<path id="left" d="M66.6955 252.5L61.1955 246.5C61.1955 251 56.6955 264.5 54.1955 269C30.1955 298.5 57.1955 364.5 59.1955 368C60.7955 370.8 62.8622 370.167 63.6955 369.5C64.5289 375.333 67.3955 386.6 72.1955 385C80.6955 381 84.6955 371.5 85.6955 363C86.6955 354.5 79.6955 320 78.1955 315.5C76.6955 311 70.1955 291.5 68.1955 281C66.5955 272.6 66.5289 258.5 66.6955 252.5Z" fill="#D9D9D9"/>
<path id="right" d="M129.793 252.5L135.293 246.5C135.293 251 139.793 264.5 142.293 269C166.293 298.5 139.293 364.5 137.293 368C135.693 370.8 133.626 370.167 132.793 369.5C131.96 375.333 129.093 386.6 124.293 385C115.793 381 111.793 371.5 110.793 363C109.793 354.5 116.793 320 118.293 315.5C119.793 311 126.293 291.5 128.293 281C129.893 272.6 129.96 258.5 129.793 252.5Z" fill="#D9D9D9"/>
</g>
<g id="hamstrings">
<path id="left" d="M56.6955 366.5C49.4955 353.3 43.3622 320 41.1956 305C39.0289 309.5 35.4955 322.3 38.6955 337.5C42.6955 356.5 48.6955 372 53.1955 380C58.1955 377 58.1955 371 56.6955 366.5Z" fill="#D9D9D9"/>
<path id="right" d="M139.793 366.5C146.993 353.3 153.126 320 155.293 305C157.46 309.5 160.993 322.3 157.793 337.5C153.793 356.5 147.793 372 143.293 380C138.293 377 138.293 371 139.793 366.5Z" fill="#D9D9D9"/>
</g>
<!-- forearm -->
<path id="forearm_left_1" d="M9.69558 211C7.69558 208.2 6.19558 200.833 5.69558 197.5C-5.50442 211.9 2.36225 258.5 7.69558 280C11.6956 281.6 15.3622 280.667 16.6956 280C16.3622 276.5 15.6956 266.5 15.6956 254.5C15.6956 237 16.6956 238 18.1956 233C17.7956 224.2 17.0289 211.667 16.6956 206.5C14.6956 208.1 11.1956 210.167 9.69558 211Z" fill="#D9D9D9"/>
<path id="forearm_left_2" d="M34.6956 216C35.8956 207.2 32.8622 196 31.1956 191.5C27.5956 195.1 21.0289 202.667 18.1956 206L19.6956 230L34.6956 216Z" fill="#D9D9D9"/>
<path id="forearm_left_3" d="M32.1956 236.5C34.9956 232.9 35.6956 222.667 35.6956 218C28.1956 223.5 22.1956 230 19.6956 233C16.4956 246.6 18.3622 269 19.6956 278.5C23.6956 254 28.6956 241 32.1956 236.5Z" fill="#D9D9D9"/> <!-- path yang hilang -->
<path id="forearm_right_1" d="M185.696 211.5C187.696 208.7 189.196 201.333 189.696 198C200.896 212.4 193.029 259 187.696 280.5C183.696 282.1 180.029 281.167 178.696 280.5C179.029 277 179.696 267 179.696 255C179.696 237.5 178.696 238.5 177.196 233.5C177.596 224.7 178.362 212.167 178.696 207C180.696 208.6 184.196 210.667 185.696 211.5Z" fill="#D9D9D9"/>
<path id="forearm_right_2" d="M160.696 216.5C159.496 207.7 162.529 196.5 164.196 192C167.796 195.6 174.362 203.167 177.196 206.5L175.696 230.5L160.696 216.5Z" fill="#D9D9D9"/>
<path id="forearm_right_3" d="M163.196 237C160.396 233.4 159.696 223.167 159.696 218.5C167.196 224 173.196 230.5 175.696 233.5C178.896 247.1 177.029 269.5 175.696 279C171.696 254.5 166.696 241.5 163.196 237Z" fill="#D9D9D9"/> <!-- path yang hilang -->
<!-- back -->
<path id="back_left" d="M60.6956 157C53.8956 157.8 47.8622 154.667 45.6956 153C45.6956 159.8 44.3622 167.833 43.6956 171C44.0956 173.4 48.1956 179.333 50.1956 182C48.9956 170 56.6956 160.333 60.6956 157Z" fill="#D9D9D9"/>
<path id="back_right" d="M134.696 157C141.496 157.8 147.529 154.667 149.696 153C149.696 159.8 151.029 167.833 151.696 171C151.296 173.4 147.196 179.333 145.196 182C146.396 170 138.696 160.333 134.696 157Z" fill="#D9D9D9"/>
<g id="biceps">
<path id="left" d="M18.1956 155.5C20.9956 153.9 29.6956 150.167 33.6956 148.5C37.2956 184.9 19.8623 204 10.6956 209C0.695592 175.5 14.6956 157.5 18.1956 155.5Z" fill="#D9D9D9"/>
<path id="right" d="M177.678 156C174.878 154.4 166.178 150.667 162.178 149C158.578 185.4 176.011 204.5 185.178 209.5C195.178 176 181.178 158 177.678 156Z" fill="#D9D9D9"/>
</g>
<g id="shoulders">
<path id="left" d="M14.1956 126.5C13.3956 138.1 16.1956 149.333 17.6956 153.5C48.0956 144.7 57.0289 118.5 57.6956 106.5C55.1956 104 48.0956 99.4 39.6956 101C29.1956 103 15.1956 112 14.1956 126.5Z" fill="#D9D9D9"/>
<path id="right" d="M182.196 126.83C182.996 138.43 180.196 149.664 178.696 153.83C148.296 145.03 139.362 118.83 138.696 106.83C141.196 104.33 148.296 99.7303 156.696 101.33C167.196 103.33 181.196 112.33 182.196 126.83Z" fill="#D9D9D9"/>
</g>
<g id="chest">
<path id="left" d="M96.1956 135.5V114C94.1956 109.5 91.6956 106 86.1956 105C72.1956 104.6 62.6956 106.5 59.6956 107.5C54.8956 128.3 45.0289 140.167 40.6956 143.5C50.1956 158 65.1956 156 79.6956 150C91.2956 145.2 95.5289 138.333 96.1956 135.5Z" fill="#D9D9D9"/>
<path id="right" d="M99.6956 135.554V114.054C101.696 109.554 104.196 106.055 109.696 105.054C123.696 104.654 133.196 106.554 136.196 107.554C140.996 128.354 150.862 140.221 155.196 143.554C145.696 158.054 130.696 156.054 116.196 150.054C104.596 145.254 100.362 138.388 99.6956 135.554Z" fill="#D9D9D9"/>
</g>
<g id="abs_upper">
<path id="left" d="M89.6956 146.5C88.0956 148.5 85.0289 150.333 83.6956 151C74.6956 154 71.1956 159 71.1956 161.5C71.1956 164 70.1956 167.5 74.1956 166C82.6956 161.5 87.1956 162.5 92.6956 162C98.1956 161.5 96.1956 154.5 95.6956 151C95.1956 147.5 90.6956 146 89.6956 146.5Z" fill="#D9D9D9"/>
<path id="right" d="M106.196 146.094C107.796 148.094 110.862 149.927 112.196 150.594C121.196 153.594 124.696 158.594 124.696 161.094C124.696 163.594 125.696 167.094 121.696 165.594C113.196 161.094 108.696 162.094 103.196 161.594C97.6956 161.094 99.6956 154.094 100.196 150.594C100.696 147.094 105.196 145.594 106.196 146.094Z" fill="#D9D9D9"/>
</g>
<g id="abs_middle">
<path id="left" d="M69.1956 179.5C68.7956 183.5 70.0289 185.5 70.6956 186C76.6956 183.5 88.1956 187.5 90.6956 188C94.6956 188.5 96.1956 182.5 96.1956 177.5C96.1956 172.5 96.6956 169 94.6956 166.5C91.6956 162 80.6956 165.5 75.1956 167.5C69.6956 169.5 69.6956 174.5 69.1956 179.5Z" fill="#D9D9D9"/>
<path id="right" d="M126.696 179.094C127.096 183.094 125.862 185.094 125.196 185.594C119.196 183.094 107.696 187.094 105.196 187.594C101.196 188.094 99.6956 182.094 99.6956 177.094C99.6956 172.094 99.1956 168.594 101.196 166.094C104.196 161.594 115.196 165.094 120.696 167.094C126.196 169.094 126.196 174.094 126.696 179.094Z" fill="#D9D9D9"/>
</g>
<g id="abs_lower">
<path id="left" d="M96.1956 194C86.9956 186 75.0289 186.333 70.1956 187.5C70.1956 191 69.1956 205.5 72.1956 206.5C75.1956 207.5 84.1956 211 89.1956 213.5C93.1956 215.5 95.5289 210 96.1956 207V194Z" fill="#D9D9D9"/>
<path id="right" d="M99.6956 193.594C108.896 185.594 120.862 185.927 125.696 187.094C125.696 190.594 126.696 205.094 123.696 206.094C120.696 207.094 111.696 210.594 106.696 213.094C102.696 215.094 100.362 209.594 99.6956 206.594V193.594Z" fill="#D9D9D9"/>
</g>
<g id="triceps">
<path id="left" d="M39.1956 145L34.6956 148C37.0956 166.4 31.6956 184.333 28.6956 191C40.6956 181.8 44.3622 160.833 44.6956 151.5C42.6956 149.9 40.1956 146.5 39.1956 145Z" fill="#D9D9D9"/>
<path id="right" d="M156.196 145L160.696 148C158.296 166.4 163.696 184.333 166.696 191C154.696 181.8 151.029 160.833 150.696 151.5C152.696 149.9 155.196 146.5 156.196 145Z" fill="#D9D9D9"/>
</g>
<!-- traps -->
<path id="trap_left" d="M56.1956 92.5C66.1956 89.3 75.3622 80.1667 78.6956 76C79.1956 78.6667 81.2956 85.4 85.6956 91C90.0956 96.6 95.8622 101.667 98.1956 103.5V115C93.1956 101 83.1956 103.5 74.1956 103.5C66.9956 103.5 60.8622 105.167 58.6956 106C51.0956 99.6 44.1956 99 41.6956 99.5C42.3622 98.5 46.1956 95.7 56.1956 92.5Z" fill="#D9D9D9"/>
<path id="trap_right" d="M139.696 92.5C129.696 89.3 120.529 80.1667 117.196 76C116.696 78.6667 114.596 85.4 110.196 91C105.796 96.6 100.029 101.667 97.6956 103.5V115C102.696 101 112.696 103.5 121.696 103.5C128.896 103.5 135.029 105.167 137.196 106C144.796 99.6 151.696 99 154.196 99.5C153.529 98.5 149.696 95.7 139.696 92.5Z" fill="#D9D9D9"/>
<!-- abs -->
<path id="abs_lower_ext_left" d="M97.1956 262.5V225.5C91.6956 213.5 75.6956 209 72.1956 210C67.6956 218.5 86.1956 254.5 89.1956 258.5C92.7956 264.9 96.0289 263.833 97.1956 262.5Z" fill="#D9D9D9"/>
<path id="abs_lower_ext_right" d="M98.6956 262.094V225.094C104.196 213.094 120.196 208.594 123.696 209.594C128.196 218.094 109.696 254.094 106.696 258.094C103.096 264.494 99.8622 263.427 98.6956 262.094Z" fill="#D9D9D9"/>
<path d="M98.5 76.5V102C87.3 94 81.8334 82.6667 80.5 78L80 61.5C84 74.3 94 76.8333 98.5 76.5Z" fill="#D9D9D9"/>
<path d="M98.5 0V75C86.5 75 79.5 59.6667 77.5 52C73.5 52 68.5 42.5 70.5 38C72.1 34.4 74.1667 33.8333 75 34C74.8334 29.6667 74.7 20.3 75.5 17.5C78.7 3.5 92.1667 0 98.5 0Z" fill="#D9D9D9"/>
<path d="M93 144C95 142.4 97.5 138.333 98.5 136.5V151C97.7 148.6 94.5 145.333 93 144Z" fill="#D9D9D9"/>
<path d="M95 163.5L98.5 160V167.5L95 163.5Z" fill="#D9D9D9"/>
<path d="M94 189.5C96.8 186.3 98.1667 181.167 98.5 179V193.5C98.1 191.9 95.3334 190.167 94 189.5Z" fill="#D9D9D9"/>
<path d="M92.5 216C96.5 213.6 98.1667 209 98.5 207V224C98.1 222 94.3334 217.833 92.5 216Z" fill="#D9D9D9"/>
<path d="M90.5 263C93.7 266.2 97.1667 265.667 98.5 265V284C72.5 261 55.5 232 54.5 230C53.5 228 52.5 215 54.5 209.5C56.1 205.1 56.8334 199.333 57 197C60.6 201.8 67.5 206.333 70.5 208C65 218 86.5 259 90.5 263Z" fill="#D9D9D9"/>
<path d="M56 166C61.6 157.2 69 155.333 72 155.5C68.8 159.9 69.6667 166.333 70.5 169C66 181.5 69 184.5 69 187.5C67.8 190.3 68.5 200.667 69 205.5C54 196.5 49 177 56 166Z" fill="#D9D9D9"/>
<path d="M58 241.5L53 231.5C52 232.333 49.9 234.7 49.5 237.5C49.1 240.3 50 250 50.5 254.5L58 241.5Z" fill="#D9D9D9"/>
<path d="M73.5 293.5C68.3 279.9 68 262.5 68.5 255.5C71.1231 262.7 87.2596 278.5 95 285.5C94.8334 293.5 94 310.8 92 316C90 321.2 87.1667 337.167 86 344.5C84 333.167 78.7 307.1 73.5 293.5Z" fill="#D9D9D9"/>
<path d="M53.5 381.5C51.9 380.7 48.8333 375.167 47.5 372.5C49.1 386.1 52.1667 394.833 53.5 397.5L55 393.5L53.5 381.5Z" fill="#D9D9D9"/>
<path d="M83.5 376.5C82.3 381.3 76.6667 384.167 74 385L73 396.5L75 399C75.5 398.167 77.2 395.6 80 392C82.8 388.4 83.5 380.167 83.5 376.5Z" fill="#D9D9D9"/>
<path d="M61.5 406.5C57.5 404.5 55.8333 399 55.5 396.5C54 405 58.5 410 59.5 414.5C60.5 419 59.5 429.5 61.5 439C63.5 448.5 64.5 479 65 487C65.4 493.4 66.5 500 67 502.5H72C69 496 68.5 450 69 440.5C69.5 431 73 413.5 73.5 409C73.9 405.4 72.6667 400.833 72 399C70.6087 406 66.5 409 61.5 406.5Z" fill="#D9D9D9"/>
<path d="M69 504.5C64.2 503.7 61 506.833 60 508.5C56.3333 513.667 48 525.7 44 532.5C39 541 47.5 554.5 58 551.5C68.5 548.5 73 542.5 73.5 532.5C74 522.5 77 520 79.5 515C82 510 75 505.5 69 504.5Z" fill="#D9D9D9"/>
<path d="M19 282.5C20.5 282.333 23.6 284.3 24 293.5C24.3273 301.027 24.2306 303.043 24.0933 303.162C25.2761 305.239 27.2791 309.663 26.5 312C25.7 314.4 24.1667 314.667 23.5 314.5C24.1667 320 24.6 331.6 21 334C19.4 334 13 317.667 10 309.5C10 302.167 9.8 286.5 9 282.5H19Z" fill="#D9D9D9"/>
<path d="M98 76.5V102C109.2 94 114.667 82.6667 116 78L116.5 61.5C112.5 74.3 102.5 76.8333 98 76.5Z" fill="#D9D9D9"/>
<path d="M98 0V75C110 75 117 59.6667 119 52C123 52 128 42.5 126 38C124.4 34.4 122.333 33.8333 121.5 34C121.667 29.6667 121.8 20.3 121 17.5C117.8 3.5 104.333 0 98 0Z" fill="#D9D9D9"/>
<path d="M103.5 144C101.5 142.4 99 138.333 98 136.5V151C98.8 148.6 102 145.333 103.5 144Z" fill="#D9D9D9"/>
<path d="M101.5 163.5L98 160V167.5L101.5 163.5Z" fill="#D9D9D9"/>
<path d="M102.5 189.5C99.7 186.3 98.3333 181.167 98 179V193.5C98.4 191.9 101.167 190.167 102.5 189.5Z" fill="#D9D9D9"/>
<path d="M104 216C100 213.6 98.3333 209 98 207V224C98.4 222 102.167 217.833 104 216Z" fill="#D9D9D9"/>
<path d="M106 263C102.8 266.2 99.3333 265.667 98 265V284C124 261 141 232 142 230C143 228 144 215 142 209.5C140.4 205.1 139.667 199.333 139.5 197C135.9 201.8 129 206.333 126 208C131.5 218 110 259 106 263Z" fill="#D9D9D9"/>
<path d="M140.5 166C134.9 157.2 127.5 155.333 124.5 155.5C127.7 159.9 126.833 166.333 126 169C130.5 181.5 127.5 184.5 127.5 187.5C128.7 190.3 128 200.667 127.5 205.5C142.5 196.5 147.5 177 140.5 166Z" fill="#D9D9D9"/>
<path d="M138.5 241.5L143.5 231.5C144.5 232.333 146.6 234.7 147 237.5C147.4 240.3 146.5 250 146 254.5L138.5 241.5Z" fill="#D9D9D9"/>
<path d="M123 293.5C128.2 279.9 128.5 262.5 128 255.5C125.377 262.7 109.24 278.5 101.5 285.5C101.667 293.5 102.5 310.8 104.5 316C106.5 321.2 109.333 337.167 110.5 344.5C112.5 333.167 117.8 307.1 123 293.5Z" fill="#D9D9D9"/>
<path d="M143 381.5C144.6 380.7 147.667 375.167 149 372.5C147.4 386.1 144.333 394.833 143 397.5L141.5 393.5L143 381.5Z" fill="#D9D9D9"/>
<path d="M113 376.5C114.2 381.3 119.833 384.167 122.5 385L123.5 396.5L121.5 399C121 398.167 119.3 395.6 116.5 392C113.7 388.4 113 380.167 113 376.5Z" fill="#D9D9D9"/>
<path d="M135 406.5C139 404.5 140.667 399 141 396.5C142.5 405 138 410 137 414.5C136 419 137 429.5 135 439C133 448.5 132 479 131.5 487C131.1 493.4 130 500 129.5 502.5H124.5C127.5 496 128 450 127.5 440.5C127 431 123.5 413.5 123 409C122.6 405.4 123.833 400.833 124.5 399C125.891 406 130 409 135 406.5Z" fill="#D9D9D9"/>
<path d="M127.5 504.5C132.3 503.7 135.5 506.833 136.5 508.5C140.167 513.667 148.5 525.7 152.5 532.5C157.5 541 149 554.5 138.5 551.5C128 548.5 123.5 542.5 123 532.5C122.5 522.5 119.5 520 117 515C114.5 510 121.5 505.5 127.5 504.5Z" fill="#D9D9D9"/>
<path d="M177.5 282.5C176 282.333 172.9 284.3 172.5 293.5C172.173 301.027 172.269 303.043 172.407 303.162C171.224 305.239 169.221 309.663 170 312C170.8 314.4 172.333 314.667 173 314.5C172.333 320 171.9 331.6 175.5 334C177.1 334 183.5 317.667 186.5 309.5C186.5 302.167 186.7 286.5 187.5 282.5H177.5Z" fill="#D9D9D9"/>
</svg>
