<svg width="107" height="112" viewBox="0 0 107 112" fill="none" xmlns="http://www.w3.org/2000/svg">
<path d="M35 46C38.2 28 33.6667 11.5 31 5.5C31 10.5 30.6 21.3 29 24.5C22.5 48.5 26.5 105 27.5 107C28.3 108.6 31.5 109.333 33 109.5C36.5 100.5 36 96.5 35.5 95C35 93.5 32 87.5 31.5 85C31 82.5 31 68.5 35 46Z" fill="#FF4D4D"/>
<path d="M8.5 6.5L5 0.5C-2.5 22 0.5 42 2 51C3.5 60 15 84 17 95C18.6 103.8 17 109.667 16 111.5L21 108.5C20 102.667 18 90.4 18 88C18 85 17 62.5 15 51C13.4 41.8 12.6667 25.5 12.5 18.5L9 12.5L8.5 6.5Z" fill="#FF4D4D"/>
<path d="M72.1006 46.5C68.9006 28.5 73.434 12 76.1006 6C76.1006 11 76.5006 21.8 78.1006 25C84.6006 49 80.6006 105.5 79.6006 107.5C78.8006 109.1 75.6006 109.833 74.1006 110C70.6006 101 71.1006 97 71.6006 95.5C72.1006 94 75.1006 88 75.6006 85.5C76.1006 83 76.1006 69 72.1006 46.5Z" fill="#FF4D4D"/>
<path d="M98.6006 7L102.101 1C109.601 22.5 106.601 42.5 105.101 51.5C103.601 60.5 92.1006 84.5 90.1006 95.5C88.5006 104.3 90.1006 110.167 91.1006 112L86.1006 109C87.1006 103.167 89.1006 90.9 89.1006 88.5C89.1006 85.5 90.1006 63 92.1006 51.5C93.7006 42.3 94.4339 26 94.6006 19L98.1006 13L98.6006 7Z" fill="#FF4D4D"/>
</svg>
