<svg width="115" height="51" viewBox="0 0 115 51" fill="none" xmlns="http://www.w3.org/2000/svg">
<path d="M55.5 31.5V9.99999C53.5 5.49998 51 2 45.5 0.999991C31.5 0.599991 22 2.49999 19 3.49999C14.2 24.3 4.33333 36.1667 0 39.5C9.5 54 24.5 52 39 46C50.6 41.2 54.8333 34.3333 55.5 31.5Z" fill="#FF4D4D"/>
<path d="M59 31.5545V10.0545C61 5.55449 63.5 2.0545 69 1.0545C83 0.654496 92.5 2.5545 95.5 3.5545C100.3 24.3545 110.167 36.2212 114.5 39.5545C105 54.0545 90 52.0545 75.5 46.0545C63.9 41.2545 59.6667 34.3878 59 31.5545Z" fill="#FF4D4D"/>
</svg>
