<svg width="196" height="91" viewBox="0 0 196 91" fill="none" xmlns="http://www.w3.org/2000/svg">
<path d="M10 20C8.00001 17.2 6.50001 9.83333 6.00001 6.5C-5.19999 20.9 2.66667 67.5 8.00001 89C12 90.6 15.6667 89.6667 17 89C16.6667 85.5 16 75.5 16 63.5C16 46 17 47 18.5 42C18.1 33.2 17.3333 20.6667 17 15.5C15 17.1 11.5 19.1667 10 20Z" fill="#FF4D4D"/>
<path d="M35 25C36.2 16.2 33.1667 5 31.5 0.5C27.9 4.1 21.3333 11.6667 18.5 15L20 39L35 25Z" fill="#FF4D4D"/>
<path d="M32.5 45.5C35.3 41.9 36 31.6667 36 27C28.5 32.5 22.5 39 20 42C16.8 55.6 18.6667 78 20 87.5C24 63 29 50 32.5 45.5Z" fill="#FF4D4D"/>
<path d="M186 20.5C188 17.7 189.5 10.3333 190 7C201.2 21.4 193.333 68 188 89.5C184 91.1 180.333 90.1667 179 89.5C179.333 86 180 76 180 64C180 46.5 179 47.5 177.5 42.5C177.9 33.7 178.667 21.1667 179 16C181 17.6 184.5 19.6667 186 20.5Z" fill="#FF4D4D"/>
<path d="M161 25.5C159.8 16.7 162.833 5.5 164.5 1C168.1 4.6 174.667 12.1667 177.5 15.5L176 39.5L161 25.5Z" fill="#FF4D4D"/>
<path d="M163.5 46C160.7 42.4 160 32.1667 160 27.5C167.5 33 173.5 39.5 176 42.5C179.2 56.1 177.333 78.5 176 88C172 63.5 167 50.5 163.5 46Z" fill="#FF4D4D"/>
</svg>
