<svg width="123" height="143" viewBox="0 0 123 143" fill="none" xmlns="http://www.w3.org/2000/svg">
<path d="M4.5 59C3.7 29.4 16.1667 7.33333 22.5 0C24 12.5 13 28 8.99999 38C5.79999 46 4.66666 55.3333 4.5 59Z" fill="#FF4D4D"/>
<path d="M30 9.5L24.5 3.5C24.5 8 20 21.5 17.5 26C-6.50001 55.5 20.5 121.5 22.5 125C24.1 127.8 26.1667 127.167 27 126.5C27.8333 132.333 30.7 143.6 35.5 142C44 138 48 128.5 49 120C50 111.5 43 77 41.5 72.5C40 68 33.5 48.5 31.5 38C29.9 29.6 29.8333 15.5 30 9.5Z" fill="#FF4D4D"/>
<path d="M20 123.5C12.8 110.3 6.66666 77 4.5 62C2.33333 66.5 -1.20001 79.3 1.99999 94.5C5.99999 113.5 12 129 16.5 137C21.5 134 21.5 128 20 123.5Z" fill="#FF4D4D"/>
<path d="M118.597 59C119.397 29.4 106.931 7.33333 100.597 0C99.0973 12.5 110.097 28 114.097 38C117.297 46 118.431 55.3333 118.597 59Z" fill="#FF4D4D"/>
<path d="M93.0973 9.5L98.5973 3.5C98.5973 8 103.097 21.5 105.597 26C129.597 55.5 102.597 121.5 100.597 125C98.9973 127.8 96.9307 127.167 96.0973 126.5C95.264 132.333 92.3973 143.6 87.5973 142C79.0973 138 75.0973 128.5 74.0973 120C73.0973 111.5 80.0973 77 81.5973 72.5C83.0973 68 89.5973 48.5 91.5973 38C93.1973 29.6 93.264 15.5 93.0973 9.5Z" fill="#FF4D4D"/>
<path d="M103.097 123.5C110.297 110.3 116.431 77 118.597 62C120.764 66.5 124.297 79.3 121.097 94.5C117.097 113.5 111.097 129 106.597 137C101.597 134 101.597 128 103.097 123.5Z" fill="#FF4D4D"/>
</svg>
