<svg width="113" height="39" viewBox="0 0 113 39" fill="none" xmlns="http://www.w3.org/2000/svg">
<path d="M14.5 16.5C24.5 13.3 33.6667 4.16667 37 0C37.5 2.66667 39.6 9.4 44 15C48.4 20.6 54.1667 25.6667 56.5 27.5V39C51.5 25 41.5 27.5 32.5 27.5C25.3 27.5 19.1667 29.1667 17 30C9.4 23.6 2.5 23 0 23.5C0.666667 22.5 4.5 19.7 14.5 16.5Z" fill="#FF4D4D"/>
<path d="M98 16.5C88 13.3 78.8333 4.16667 75.5 0C75 2.66667 72.9 9.4 68.5 15C64.1 20.6 58.3333 25.6667 56 27.5V39C61 25 71 27.5 80 27.5C87.2 27.5 93.3333 29.1667 95.5 30C103.1 23.6 110 23 112.5 23.5C111.833 22.5 108 19.7 98 16.5Z" fill="#FF4D4D"/>
</svg>
